<svg width="80" height="80" viewBox="0 0 80 80" fill="none" xmlns="http://www.w3.org/2000/svg">
<path d="M35 70C35 70 30 70 30 65C30 60 35 45 55 45C75 45 80 60 80 65C80 70 75 70 75 70H35ZM55 40C58.9782 40 62.7936 38.4196 65.6066 35.6066C68.4196 32.7936 70 28.9782 70 25C70 21.0218 68.4196 17.2064 65.6066 14.3934C62.7936 11.5804 58.9782 10 55 10C51.0218 10 47.2064 11.5804 44.3934 14.3934C41.5804 17.2064 40 21.0218 40 25C40 28.9782 41.5804 32.7936 44.3934 35.6066C47.2064 38.4196 51.0218 40 55 40V40ZM26.08 70C25.3388 68.4391 24.9691 66.7277 25 65C25 58.225 28.4 51.25 34.68 46.4C31.5455 45.4342 28.2797 44.9619 25 45C5 45 0 60 0 65C0 70 5 70 5 70H26.08ZM22.5 40C25.8152 40 28.9946 38.683 31.3388 36.3388C33.683 33.9946 35 30.8152 35 27.5C35 24.1848 33.683 21.0054 31.3388 18.6612C28.9946 16.317 25.8152 15 22.5 15C19.1848 15 16.0054 16.317 13.6612 18.6612C11.317 21.0054 10 24.1848 10 27.5C10 30.8152 11.317 33.9946 13.6612 36.3388C16.0054 38.683 19.1848 40 22.5 40V40Z" fill="#EDEDED"/>
</svg>
