<svg width="80" height="80" viewBox="0 0 80 80" fill="none" xmlns="http://www.w3.org/2000/svg">
<g clip-path="url(#clip0_62_22)">
<path d="M55.0997 26.82C57.8753 23.9995 59.4239 20.1966 59.4082 16.2395C59.3926 12.2825 57.8139 8.49189 55.0162 5.69348C52.2184 2.89506 48.4282 1.31554 44.4712 1.29896C40.5141 1.28238 36.7108 2.8301 33.8897 5.60497L5.60471 33.89C2.79142 36.7033 1.21094 40.5189 1.21094 44.4975C1.21094 48.4761 2.79142 52.2917 5.60471 55.105C8.41799 57.9183 12.2336 59.4987 16.2122 59.4987C20.1908 59.4987 24.0064 57.9183 26.8197 55.105L55.1047 26.82H55.0997ZM23.0347 23.535L37.4247 9.13997C39.3005 7.26423 41.8445 6.21045 44.4972 6.21045C47.1499 6.21045 49.694 7.26423 51.5697 9.13997C53.4455 11.0157 54.4992 13.5598 54.4992 16.2125C54.4992 18.8652 53.4455 21.4092 51.5697 23.285L37.1747 37.68L23.0347 23.535V23.535ZM59.9997 40C65.304 40 70.3911 42.1071 74.1418 45.8578C77.8926 49.6086 79.9997 54.6956 79.9997 60C79.9997 65.3043 77.8926 70.3914 74.1418 74.1421C70.3911 77.8928 65.304 80 59.9997 80C54.6954 80 49.6083 77.8928 45.8576 74.1421C42.1068 70.3914 39.9997 65.3043 39.9997 60C39.9997 54.6956 42.1068 49.6086 45.8576 45.8578C49.6083 42.1071 54.6954 40 59.9997 40V40ZM57.4997 45.21C54.0016 45.7979 50.825 47.6066 48.5341 50.3147C46.2431 53.0229 44.9861 56.4553 44.9861 60.0025C44.9861 63.5497 46.2431 66.9821 48.5341 69.6902C50.825 72.3984 54.0016 74.207 57.4997 74.795V45.21ZM62.4997 74.795C65.9978 74.207 69.1744 72.3984 71.4653 69.6902C73.7563 66.9821 75.0134 63.5497 75.0134 60.0025C75.0134 56.4553 73.7563 53.0229 71.4653 50.3147C69.1744 47.6066 65.9978 45.7979 62.4997 45.21V74.795Z" fill="#EDEDED"/>
</g>
<defs>
<clipPath id="clip0_62_22">
<rect width="80" height="80" fill="white"/>
</clipPath>
</defs>
</svg>
