<svg width="80" height="80" viewBox="0 0 80 80" fill="none" xmlns="http://www.w3.org/2000/svg">
<path d="M0 7.5C0 6.83696 0.263392 6.20107 0.732233 5.73223C1.20107 5.26339 1.83696 5 2.5 5H10C10.5577 5.00015 11.0993 5.18675 11.5387 5.53012C11.9781 5.87349 12.29 6.35392 12.425 6.895L14.45 15H72.5C72.8671 15.0003 73.2296 15.0815 73.5618 15.2378C73.8939 15.394 74.1876 15.6215 74.422 15.904C74.6563 16.1866 74.8256 16.5173 74.9177 16.8726C75.0098 17.2279 75.0226 17.5992 74.955 17.96L67.455 57.96C67.3478 58.5329 67.0437 59.0503 66.5955 59.4228C66.1472 59.7953 65.5828 59.9995 65 60H20C19.4172 59.9995 18.8528 59.7953 18.4046 59.4228C17.9563 59.0503 17.6522 58.5329 17.545 57.96L10.05 18.035L8.05 10H2.5C1.83696 10 1.20107 9.73661 0.732233 9.26777C0.263392 8.79893 0 8.16304 0 7.5ZM25 60C22.3478 60 19.8043 61.0536 17.9289 62.9289C16.0536 64.8043 15 67.3478 15 70C15 72.6522 16.0536 75.1957 17.9289 77.0711C19.8043 78.9464 22.3478 80 25 80C27.6522 80 30.1957 78.9464 32.0711 77.0711C33.9464 75.1957 35 72.6522 35 70C35 67.3478 33.9464 64.8043 32.0711 62.9289C30.1957 61.0536 27.6522 60 25 60ZM60 60C57.3478 60 54.8043 61.0536 52.9289 62.9289C51.0536 64.8043 50 67.3478 50 70C50 72.6522 51.0536 75.1957 52.9289 77.0711C54.8043 78.9464 57.3478 80 60 80C62.6522 80 65.1957 78.9464 67.0711 77.0711C68.9464 75.1957 70 72.6522 70 70C70 67.3478 68.9464 64.8043 67.0711 62.9289C65.1957 61.0536 62.6522 60 60 60ZM25 65C26.3261 65 27.5979 65.5268 28.5355 66.4645C29.4732 67.4021 30 68.6739 30 70C30 71.3261 29.4732 72.5979 28.5355 73.5355C27.5979 74.4732 26.3261 75 25 75C23.6739 75 22.4022 74.4732 21.4645 73.5355C20.5268 72.5979 20 71.3261 20 70C20 68.6739 20.5268 67.4021 21.4645 66.4645C22.4022 65.5268 23.6739 65 25 65ZM60 65C61.3261 65 62.5979 65.5268 63.5355 66.4645C64.4732 67.4021 65 68.6739 65 70C65 71.3261 64.4732 72.5979 63.5355 73.5355C62.5979 74.4732 61.3261 75 60 75C58.6739 75 57.4022 74.4732 56.4645 73.5355C55.5268 72.5979 55 71.3261 55 70C55 68.6739 55.5268 67.4021 56.4645 66.4645C57.4022 65.5268 58.6739 65 60 65V65Z" fill="#EDEDED"/>
</svg>
