<svg width="117" height="26" viewBox="0 0 117 26" fill="none" xmlns="http://www.w3.org/2000/svg">
<path d="M16.032 16.968C15.024 15.384 14.232 14.256 13.656 13.632C13.272 13.2 12.792 12.816 12.264 12.432C11.976 12.24 12.072 11.784 12.408 11.712C13.728 11.376 14.76 10.8 15.504 9.984C16.416 8.976 16.872 7.704 16.872 6.144C16.872 4.92 16.584 3.84 15.984 2.904C15.384 1.944 14.568 1.296 13.584 0.912C12.576 0.551999 10.968 0.36 8.76 0.36H1.728C0.768 0.36 0 1.152 0 2.112C0 3.072 0.768 3.864 1.728 3.864H7.416C9.096 3.864 10.104 3.864 10.464 3.912C11.136 4.032 11.64 4.296 12.024 4.728C12.384 5.16 12.576 5.712 12.576 6.408C12.576 7.032 12.432 7.56 12.168 7.968C11.88 8.376 11.496 8.664 10.992 8.832C10.488 9 9.24 9.096 7.248 9.096H4.56C4.344 9.096 4.152 8.904 4.152 8.688V8.664C4.152 7.704 3.384 6.912 2.4 6.912H1.728C0.768 6.912 0 7.704 0 8.664V19.272C0 20.232 0.768 21 1.728 21H2.4C3.384 21 4.152 20.232 4.152 19.272V12.816C4.152 12.576 4.344 12.384 4.584 12.408C5.304 12.432 6.768 12.504 7.104 12.624C7.536 12.768 7.968 13.056 8.352 13.488C8.76 13.896 9.48 14.904 10.56 16.512L13.056 20.232C13.368 20.712 13.92 21 14.496 21H15.408C16.776 21 17.616 19.488 16.872 18.336L16.032 16.968ZM37.7323 18.192L31.4443 2.496C31.0603 1.536 30.2683 0.743999 29.2603 0.48C27.6043 0.0239997 25.9723 0.912 25.3723 2.424L23.2603 7.872C22.7803 9.144 23.6923 10.488 25.0603 10.488C25.8523 10.488 26.5963 9.984 26.8603 9.24L27.9643 6.216C28.0843 5.856 28.5883 5.856 28.7323 6.216L33.8203 19.68C34.1323 20.472 34.9003 21 35.7403 21H35.8363C37.2763 21 38.2843 19.536 37.7323 18.192ZM20.5483 14.832L19.2763 18.12C18.8203 19.296 19.3963 20.64 20.6203 20.952C21.6763 21.216 22.7083 20.64 23.0683 19.656L24.2923 16.248C24.7723 14.952 23.8123 13.56 22.4203 13.56C21.5803 13.56 20.8603 14.064 20.5483 14.832ZM55.5242 16.968C54.5162 15.384 53.7242 14.256 53.1482 13.632C52.7642 13.2 52.2842 12.816 51.7562 12.432C51.4682 12.24 51.5642 11.784 51.9002 11.712C53.2202 11.376 54.2522 10.8 54.9962 9.984C55.9082 8.976 56.3642 7.704 56.3642 6.144C56.3642 4.92 56.0762 3.84 55.4762 2.904C54.8762 1.944 54.0602 1.296 53.0762 0.912C52.0682 0.551999 50.4602 0.36 48.2522 0.36H41.2202C40.2602 0.36 39.4922 1.152 39.4922 2.112C39.4922 3.072 40.2602 3.864 41.2202 3.864H46.9082C48.5882 3.864 49.5962 3.864 49.9562 3.912C50.6282 4.032 51.1322 4.296 51.5162 4.728C51.8762 5.16 52.0682 5.712 52.0682 6.408C52.0682 7.032 51.9242 7.56 51.6602 7.968C51.3722 8.376 50.9882 8.664 50.4842 8.832C49.9802 9 48.7322 9.096 46.7402 9.096H44.0522C43.8362 9.096 43.6442 8.904 43.6442 8.688V8.664C43.6442 7.704 42.8762 6.912 41.8922 6.912H41.2202C40.2602 6.912 39.4922 7.704 39.4922 8.664V19.272C39.4922 20.232 40.2602 21 41.2202 21H41.8922C42.8762 21 43.6442 20.232 43.6442 19.272V12.816C43.6442 12.576 43.8362 12.384 44.0762 12.408C44.7962 12.432 46.2602 12.504 46.5962 12.624C47.0282 12.768 47.4602 13.056 47.8442 13.488C48.2522 13.896 48.9722 14.904 50.0522 16.512L52.5482 20.232C52.8602 20.712 53.4122 21 53.9882 21H54.9002C56.2682 21 57.1082 19.488 56.3642 18.336L55.5242 16.968ZM74.9445 6C74.4885 4.68 73.8165 3.576 72.9525 2.664C72.0885 1.752 71.0565 1.104 69.8565 0.743999C68.9445 0.48 67.6485 0.36 65.9205 0.36H60.3525C59.2245 0.36 58.3125 1.272 58.3125 2.4V8.976C58.3125 10.128 59.2245 11.04 60.3525 11.04H60.4245C61.5525 11.04 62.4645 10.128 62.4645 8.976V4.272C62.4645 4.032 62.6565 3.864 62.8725 3.864H64.3365C66.0405 3.864 67.1925 3.912 67.7685 4.056C68.5365 4.224 69.1845 4.536 69.6885 5.016C70.1925 5.496 70.6005 6.168 70.8885 7.032C71.1525 7.872 71.2965 9.096 71.2965 10.704C71.2965 12.288 71.1525 13.56 70.8885 14.472C70.6005 15.408 70.2405 16.08 69.7845 16.464C69.3285 16.872 68.7765 17.16 68.1045 17.328C67.5765 17.472 66.7365 17.52 65.5845 17.52H62.8725C62.6565 17.52 62.4645 17.352 62.4645 17.112V16.152C62.4645 15 61.5525 14.088 60.4245 14.088H60.3525C59.2245 14.088 58.3125 15 58.3125 16.152V18.96C58.3125 20.088 59.2245 21 60.3525 21H66.1365C67.6965 21 68.9205 20.856 69.8325 20.568C71.0565 20.184 72.0405 19.632 72.7605 18.912C73.7205 18 74.4645 16.776 74.9685 15.264C75.4005 14.04 75.6165 12.576 75.6165 10.872C75.6165 8.952 75.3765 7.32 74.9445 6ZM95.7401 18.192L89.4521 2.496C89.0681 1.536 88.2761 0.743999 87.2681 0.48C85.6121 0.0239997 83.9801 0.912 83.3801 2.424L81.2681 7.872C80.7881 9.144 81.7001 10.488 83.0681 10.488C83.8601 10.488 84.6041 9.984 84.8681 9.24L85.9721 6.216C86.0921 5.856 86.5961 5.856 86.7401 6.216L91.8281 19.68C92.1401 20.472 92.9081 21 93.7481 21H93.8441C95.2841 21 96.2921 19.536 95.7401 18.192ZM78.5561 14.832L77.2841 18.12C76.8281 19.296 77.4041 20.64 78.6281 20.952C79.6841 21.216 80.7161 20.64 81.0761 19.656L82.3001 16.248C82.7801 14.952 81.8201 13.56 80.4281 13.56C79.5881 13.56 78.8681 14.064 78.5561 14.832ZM113.532 16.968C112.524 15.384 111.732 14.256 111.156 13.632C110.772 13.2 110.292 12.816 109.764 12.432C109.476 12.24 109.572 11.784 109.908 11.712C111.228 11.376 112.26 10.8 113.004 9.984C113.916 8.976 114.372 7.704 114.372 6.144C114.372 4.92 114.084 3.84 113.484 2.904C112.884 1.944 112.068 1.296 111.084 0.912C110.076 0.551999 108.468 0.36 106.26 0.36H99.228C98.268 0.36 97.5 1.152 97.5 2.112C97.5 3.072 98.268 3.864 99.228 3.864H104.916C106.596 3.864 107.604 3.864 107.964 3.912C108.636 4.032 109.14 4.296 109.524 4.728C109.884 5.16 110.076 5.712 110.076 6.408C110.076 7.032 109.932 7.56 109.668 7.968C109.38 8.376 108.996 8.664 108.492 8.832C107.988 9 106.74 9.096 104.748 9.096H102.06C101.844 9.096 101.652 8.904 101.652 8.688V8.664C101.652 7.704 100.884 6.912 99.9 6.912H99.228C98.268 6.912 97.5 7.704 97.5 8.664V19.272C97.5 20.232 98.268 21 99.228 21H99.9C100.884 21 101.652 20.232 101.652 19.272V12.816C101.652 12.576 101.844 12.384 102.084 12.408C102.804 12.432 104.268 12.504 104.604 12.624C105.036 12.768 105.468 13.056 105.852 13.488C106.26 13.896 106.98 14.904 108.06 16.512L110.556 20.232C110.868 20.712 111.42 21 111.996 21H112.908C114.276 21 115.116 19.488 114.372 18.336L113.532 16.968Z" fill="white"/>
<rect x="82" y="18" width="8" height="3" rx="1.5" fill="#EE4323"/>
<rect x="24" y="18" width="8" height="3" rx="1.5" fill="#EE4323"/>
</svg>
