<svg width="16" height="16" viewBox="0 0 16 16" fill="none" xmlns="http://www.w3.org/2000/svg">
<g clip-path="url(#clip0_62_22)">
<path d="M11.0199 5.36399C11.5751 4.7999 11.8848 4.03932 11.8816 3.24791C11.8785 2.45649 11.5628 1.69838 11.0032 1.1387C10.4437 0.579013 9.68564 0.263107 8.89423 0.259792C8.10282 0.256477 7.34216 0.566019 6.77794 1.12099L1.12094 6.77799C0.558285 7.34065 0.242188 8.10378 0.242188 8.89949C0.242188 9.69521 0.558285 10.4583 1.12094 11.021C1.6836 11.5837 2.44672 11.8997 3.24244 11.8997C4.03816 11.8997 4.80128 11.5837 5.36394 11.021L11.0209 5.36399H11.0199ZM4.60694 4.70699L7.48494 1.82799C7.86009 1.45285 8.3689 1.24209 8.89944 1.24209C9.42998 1.24209 9.93879 1.45285 10.3139 1.82799C10.6891 2.20314 10.8998 2.71195 10.8998 3.24249C10.8998 3.77303 10.6891 4.28185 10.3139 4.65699L7.43494 7.53599L4.60694 4.70699V4.70699ZM11.9999 7.99999C13.0608 7.99999 14.0782 8.42142 14.8284 9.17157C15.5785 9.92171 15.9999 10.9391 15.9999 12C15.9999 13.0609 15.5785 14.0783 14.8284 14.8284C14.0782 15.5786 13.0608 16 11.9999 16C10.9391 16 9.92166 15.5786 9.17151 14.8284C8.42137 14.0783 7.99994 13.0609 7.99994 12C7.99994 10.9391 8.42137 9.92171 9.17151 9.17157C9.92166 8.42142 10.9391 7.99999 11.9999 7.99999V7.99999ZM11.4999 9.04199C10.8003 9.15959 10.165 9.52132 9.70682 10.0629C9.24863 10.6046 8.99721 11.2911 8.99721 12.0005C8.99721 12.7099 9.24863 13.3964 9.70682 13.938C10.165 14.4797 10.8003 14.8414 11.4999 14.959V9.04199ZM12.4999 14.959C13.1996 14.8414 13.8349 14.4797 14.2931 13.938C14.7513 13.3964 15.0027 12.7099 15.0027 12.0005C15.0027 11.2911 14.7513 10.6046 14.2931 10.0629C13.8349 9.52132 13.1996 9.15959 12.4999 9.04199V14.959Z" fill="#717171"/>
</g>
<defs>
<clipPath id="clip0_62_22">
<rect width="16" height="16" fill="white"/>
</clipPath>
</defs>
</svg>
