<svg width="44" height="44" viewBox="0 0 44 44" fill="none" xmlns="http://www.w3.org/2000/svg">
<path d="M37.6667 24.3333H36.3333V21.6667C36.3333 17.9867 33.3467 15 29.6667 15C25.9867 15 23 17.9867 23 21.6667V24.3333H21.6667C20.2 24.3333 19 25.5333 19 27V40.3333C19 41.8 20.2 43 21.6667 43H37.6667C39.1333 43 40.3333 41.8 40.3333 40.3333V27C40.3333 25.5333 39.1333 24.3333 37.6667 24.3333ZM29.6667 36.3333C28.2 36.3333 27 35.1333 27 33.6667C27 32.2 28.2 31 29.6667 31C31.1333 31 32.3333 32.2 32.3333 33.6667C32.3333 35.1333 31.1333 36.3333 29.6667 36.3333ZM25.6667 24.3333V21.6667C25.6667 19.4533 27.4533 17.6667 29.6667 17.6667C31.88 17.6667 33.6667 19.4533 33.6667 21.6667V24.3333H25.6667Z" fill="url(#paint0_linear_48_42)"/>
<defs>
<linearGradient id="paint0_linear_48_42" x1="29.6667" y1="15" x2="29.6667" y2="43" gradientUnits="userSpaceOnUse">
<stop stop-color="#FF7E49"/>
<stop offset="1" stop-color="#F14600"/>
</linearGradient>
</defs>
</svg>
